<?xml version="1.0" encoding="utf-8"?>
<!-- Generator: Adobe Illustrator 24.1.2, SVG Export Plug-In . SVG Version: 6.00 Build 0)  -->
<svg version="1.1" id="Layer_1" xmlns="http://www.w3.org/2000/svg" xmlns:xlink="http://www.w3.org/1999/xlink" x="0px" y="0px"
	 viewBox="0 0 2100 2100" style="enable-background:new 0 0 2100 2100;" xml:space="preserve">
<style type="text/css">
	.st0{fill:none;}
	.st1{fill:#F77F00;}
</style>
<rect class="st0" width="2100" height="2100"/>
<g>
	<path class="st1" d="M1004.8,434.5h14.7c3.9,0,5.9-3.1,4.5-7l-9.2-24.7c-1.4-3.8-3.8-3.8-5.2,0l-9.3,24.7
		C998.8,431.3,1000.8,434.5,1004.8,434.5z"/>
	<path class="st1" d="M2057.6,1185.5c-0.1-2.7-0.4-5.4-0.8-7.9c0-0.3-0.1-0.6-0.1-0.9c0,0,0,0-0.1,0.1c-1.1-6.1-2.9-11.3-4.3-14.7
		c-11.4-24.8-39.2-75.2-85.5-121.2c-15.9-15.8-33.5-33.3-51.6-52.4l103.6-21.6c31.1-8.2,34.3-13.6,34.3-32.7V892
		c0-28.2-15.1-47.8-28.7-47.8h-214.5c-5.3-8.2-10.6-16.6-16.1-25.2c-71.8-112.3-170.1-266.1-233.6-277.8
		c-55.3-10.2-88.4-18.6-152.4-24.9l-27.1-198.3c0-12.1-9.1-22-20.3-22H738c-11.2,0-20.3,9.9-20.3,22l-27.1,205
		c-96.3,8.6-148.4,16.8-156.6,18.2c-64.4,12.7-161.2,164.5-231.8,275.4c-6,9.4-11.9,18.6-17.7,27.7H71c-13.6,0-28.7,19.6-28.7,47.8
		v42.2c0,19.1,3.2,24.5,34.3,32.7l102.3,21.3c-6.9,7.3-13.8,14.4-20.5,21.4c-12,12.5-23.3,24.3-33.7,35.4l-0.4,2.2l-1.4-0.3
		c-36.5,39.2-62.3,91.3-74.5,120.4c-2,7.3-6.6,17.1-7.2,33.1c0,0-0.1-0.1-0.1-0.1c-9.5,93.3-17.1,253.2-2.8,402.4v130
		c0,33,17.3,51.3,46,51.3H300c30.2,0,46.2-18.3,46-51.3v-105.5h1405.2v105.5c0.2,33.3,14.2,51.3,46,51.3h215.8
		c31.5,0,46.2-16.6,46-51.3v-105.5h0.4C2074.9,1464.8,2067.8,1290.8,2057.6,1185.5z M1232.6,359.5c0-4.1,3.2-7.5,7.1-7.5h21.7
		c3.9,0,7.1,3.4,7.1,7.5v120.9c0,4.1-3.2,7.5-7.1,7.5h-21.7c-3.9,0-7.1-3.4-7.1-7.5V359.5z M1091.7,481.6l36.3-56.7
		c2.2-3.4,2.2-9,0-12.4l-34.5-54.3c-2.2-3.4-0.7-6.2,3.2-6.2h26.9c3.9,0,8.8,2.9,10.9,6.3l15.3,25.6c2.1,3.5,5.5,3.5,7.6,0
		l15.4-25.6c2.1-3.5,7-6.3,10.9-6.3h25.9c3.9,0,5.3,2.8,3.1,6.2l-34.4,53.9c-2.2,3.4-2.2,9,0,12.4l36.3,57c2.2,3.4,0.8,6.2-3.1,6.2
		h-26.9c-3.9,0-8.8-2.8-10.9-6.3l-17.1-28.3c-2.1-3.5-5.5-3.5-7.6,0l-17.2,28.3c-2.1,3.5-7,6.3-10.9,6.3h-25.9
		C1090.9,487.8,1089.5,485,1091.7,481.6z M943.2,480.9l49.3-123c1.5-3.8,6-6.9,9.9-6.9h20.2c3.9,0,8.3,3.1,9.9,6.9l49.3,123
		c1.5,3.8-0.4,6.9-4.3,6.9h-24.1c-3.9,0-8.3-3.1-9.8-6.9l-4-10.4c-1.5-3.8-5.9-6.9-9.8-6.9h-35.5c-3.9,0-8.3,3.1-9.7,6.9l-3.9,10.4
		c-1.5,3.8-5.8,7-9.7,7h-23.4C943.6,487.8,941.6,484.7,943.2,480.9z M822,359.5c0-4.1,3.2-7.5,7.1-7.5H928c3.9,0,7.1,3.4,7.1,7.5v18
		c0,4.1-3.2,7.5-7.1,7.5h-24.5c-3.9,0-7.1,3.4-7.1,7.5v87.9c0,4.1-3.2,7.5-7.1,7.5h-21.5c-3.9,0-7.1-3.4-7.1-7.5v-87.9
		c0-4.1-3.2-7.5-7.1-7.5h-24.5c-3.9,0-7.1-3.4-7.1-7.5V359.5z M336.5,969.3c22.3-57.5,174.2-298.6,205-330.9
		c2.5-2.6,5.6-4.5,9.1-5.4c57.6-15.6,226.9-41.9,496.4-41.9c251.1,0,430.6,21.2,497.1,42.1c3.1,1,6,2.8,8.3,5.2
		c30.9,32.3,180.5,269.9,205,330.9c3.4,8.4,6,17.1,2.1,25.3c-6.2,12.9-19.9,20.4-81.1,27.7c-38.1,4.6-91.9,8.5-159.6,11.8
		c-125.6,6-293.2,9.4-471.9,9.4c-178.7,0-346.3-3.3-471.8-9.3c-67.7-3.3-121.4-7.2-159.6-11.8c-61.1-7.3-74.9-14.7-81.1-27.7
		C330.5,986.5,333.2,977.8,336.5,969.3z M1334,1300.7H744.5c15.7-44.5,74.4-44.5,294.7-44.5
		C1259.5,1256.2,1318.3,1256.2,1334,1300.7z M574.3,1414.2c-23.8,20.2-78.8,31-168.1,33.1c-16.2,0.4-35,0.7-51.7,0.7
		c-116.5,0-122.9-19.1-128.8-92c-3-37.1-0.2-63.1,8.4-77.4c9.4-15.5,28.8-23,59.2-23c32.4,0,73.4,8.8,109.2,17.4
		c45.1,10.9,82.8,21,113.1,32.6l0,0.3c0.5,0.1,1.1,0.2,1.6,0.3c9.6,3.7,18.4,7.6,26.5,11.7c32.3,16.4,42.4,32.8,43.8,42.4
		C590.6,1383.2,586.3,1404,574.3,1414.2z M1039.2,1482.1c-220.3,0-279.1,0-294.7-44.5H1334
		C1318.3,1482.1,1259.5,1482.1,1039.2,1482.1z M1339.5,1396.7H739c-0.2-8.4-0.2-17.5-0.2-27.6c0-10.1,0-19.2,0.2-27.6h600.5
		c0.2,8.4,0.2,17.5,0.2,27.6C1339.7,1379.2,1339.7,1388.4,1339.5,1396.7z M1872.8,1356.1c-6,72.9-12.3,92-128.8,92
		c-16.8,0-35.6-0.4-51.8-0.7c-89.3-2.1-144.3-12.9-168.1-33.1c-12-10.2-16.9-29.8-13.1-53.7c1.5-9.6,11.5-26,43.8-42.4
		c34-17.3,81-30.5,141.2-45c35.8-8.6,76.8-17.4,109.2-17.4c30.4,0,49.8,7.5,59.2,23C1873,1292.9,1875.8,1318.9,1872.8,1356.1z"/>
</g>
</svg>
